{"title":"The.Girl.Who.Played.With.Fire.2009.DVDRip.XviD-JR.Dubbed.English","uid":6124513,"size":1101031424,"categoryP":"video","categoryS":"movies","magnet":"?xt=urn:btih:65f3f51b809f22193952b410c2537f768896aebc&amp;dn=The.Girl.Who.Played.With.Fire.2009.DVDRip.XviD-JR.Dubbed.English&amp;tr=udp%3A%2F%2Ftracker.openbittorrent.com%3A80&amp;tr=udp%3A%2F%2Fopen.demonii.com%3A1337&amp;tr=udp%3A%2F%2Ftracker.coppersurfer.tk%3A6969&amp;tr=udp%3A%2F%2Fexodus.desync.com%3A6969","seeders":32,"leechers":1,"uploader":"steve8852","files":1,"time":1295886100,"description":"The second installment of the Millenium series.\n\nEnglish Dubbed.\n\nFormat                           : AVI\nFormat/Info                      : Audio Video Interleave\nFile size                        : 1.03 GiB\nDuration                         : 2h 9mn\nOverall bit rate                 : 1 133 Kbps\nWriting application              : VirtualDubMod 1.5.4.1 (build 2178/release)\nWriting library                  : VirtualDubMod build 2178/release\n\nVideo\nID                               : 0\nFormat                           : MPEG-4 Visual\nFormat profile                   : Advanced Simple@L5\nFormat settings, BVOP            : Yes\nFormat settings, QPel            : No\nFormat settings, GMC             : No warppoints\nFormat settings, Matrix          : Custom\nCodec ID                         : XVID\nCodec ID/Hint                    : XviD\nDuration                         : 2h 9mn\nBit rate                         : 966 Kbps\nWidth                            : 608 pixels\nHeight                           : 352 pixels\nDisplay aspect ratio             : 16:9\nFrame rate                       : 23.976 fps\nColor space                      : YUV\nChroma subsampling               : 4:2:0\nBit depth                        : 8 bits\nScan type                        : Progressive\nBits/(Pixel*Frame)               : 0.188\nStream size                      : 895 MiB (85%)\nWriting library                  : XviD 1.1.0 Beta2 (UTC 2005-04-04)\n\nAudio\nID                               : 1\nFormat                           : MPEG Audio\nFormat version                   : Version 1\nFormat profile                   : Layer 3\nMode                             : Joint stereo\nCodec ID                         : 55\nCodec ID/Hint                    : MP3\nDuration                         : 2h 9mn\nBit rate mode                    : Constant\nBit rate                         : 160 Kbps\nChannel(s)                       : 2 channels\nSampling rate                    : 48.0 KHz\nStream size                      : 148 MiB (14%)\nAlignment                        : Aligned on interleaves\nInterleave, duration             : 83 ms (2.00 video frames)\nInterleave, preload duration     : 504 ms\nWriting library                  : LAME3.96r\nEncoding settings                : -m j -V 4 -q 2 -lowpass 18 -b 160\nLanguage                         : English","torrent":{"xt":"urn:btih:65f3f51b809f22193952b410c2537f768896aebc","amp;dn":"The.Girl.Who.Played.With.Fire.2009.DVDRip.XviD-JR.Dubbed.English","amp;tr":["udp%3A%2F%2Ftracker.openbittorrent.com%3A80","udp%3A%2F%2Fopen.demonii.com%3A1337","udp%3A%2F%2Ftracker.coppersurfer.tk%3A6969","udp%3A%2F%2Fexodus.desync.com%3A6969"],"infoHash":"65f3f51b809f22193952b410c2537f768896aebc","infoHashBuffer":{"type":"Buffer","data":[101,243,245,27,128,159,34,25,57,82,180,16,194,83,127,118,136,150,174,188]},"announce":[],"urlList":[]}}